<?xml version="1.0" standalone="no"?>
<!DOCTYPE svg PUBLIC "-//W3C//DTD SVG 20010904//EN"
 "http://www.w3.org/TR/2001/REC-SVG-20010904/DTD/svg10.dtd">
<svg version="1.0" xmlns="http://www.w3.org/2000/svg"
 width="500.000000pt" height="500.000000pt" viewBox="0 0 500.000000 500.000000"
 preserveAspectRatio="xMidYMid meet">
<metadata>
Created by potrace 1.11, written by Peter Selinger 2001-2013
</metadata>
<g transform="translate(0.000000,500.000000) scale(0.100000,-0.100000)"
fill="#000000" stroke="none">
<path d="M2477 4968 c-20 -41 -63 -116 -132 -233 -51 -86 -471 -814 -619
-1073 -39 -68 -79 -137 -90 -155 -34 -59 -502 -871 -540 -937 -20 -36 -41 -72
-46 -80 -17 -27 -306 -528 -654 -1133 -31 -54 -56 -100 -56 -103 0 -2 162 -4
359 -4 l360 0 -85 -146 c-46 -80 -95 -164 -108 -187 -13 -23 -47 -82 -76 -132
-29 -49 -62 -106 -72 -125 -11 -19 -80 -138 -153 -265 -73 -126 -143 -248
-155 -270 -12 -22 -33 -59 -47 -82 l-25 -43 2161 0 2162 0 -12 22 c-7 13 -138
241 -292 508 -154 267 -311 538 -348 603 l-68 117 352 1 c194 1 355 1 360 0 4
0 7 1 7 4 0 3 -55 101 -123 218 -68 116 -126 219 -130 227 -4 8 -16 29 -26 47
-27 44 -192 328 -223 383 -14 25 -49 86 -78 135 -29 50 -61 106 -72 125 -11
19 -37 64 -58 100 -21 36 -47 81 -58 100 -11 19 -43 76 -72 125 -29 50 -62
108 -74 130 -13 22 -106 184 -208 360 -102 176 -203 352 -225 390 -22 39 -175
304 -340 590 -165 286 -313 542 -328 570 -16 27 -52 89 -81 138 -30 49 -54 93
-54 98 0 20 -17 7 -33 -23z m43 -200 c0 -5 9 -21 19 -36 10 -15 157 -268 327
-562 169 -294 341 -593 382 -665 357 -618 559 -967 580 -1005 14 -25 80 -139
147 -255 67 -115 133 -230 147 -255 23 -40 282 -490 344 -597 l24 -41 -304 0
-304 1 -228 396 c-126 218 -234 405 -240 416 -5 11 -61 108 -124 215 -62 107
-121 209 -130 225 -10 17 -43 75 -75 130 -32 55 -69 120 -83 145 -14 25 -53
92 -87 150 -35 58 -71 121 -81 140 -56 105 -330 570 -335 570 -3 0 -21 -26
-38 -57 -18 -32 -41 -74 -53 -93 -25 -42 -518 -897 -648 -1125 -10 -16 -109
-187 -220 -380 -112 -192 -208 -359 -214 -370 -6 -11 -55 -97 -110 -191 l-98
-172 -303 0 -303 1 19 33 c10 19 29 51 40 72 25 44 165 286 494 857 134 231
255 443 271 470 15 28 45 78 66 113 21 34 38 64 38 66 0 2 35 63 78 137 43 74
90 154 104 179 14 25 110 191 213 370 103 179 273 474 377 655 105 182 200
346 212 365 12 19 33 56 46 82 19 36 27 44 37 36 7 -6 13 -15 13 -20z m29
-1306 c70 -121 211 -365 449 -777 41 -71 85 -148 97 -171 13 -22 34 -58 47
-80 14 -21 38 -64 55 -94 17 -30 54 -95 83 -145 29 -49 62 -106 73 -125 10
-19 70 -123 132 -230 62 -107 122 -211 132 -230 11 -19 48 -83 82 -141 33 -59
61 -109 61 -112 0 -2 -567 -4 -1260 -4 -693 0 -1260 2 -1260 6 0 3 25 48 55
100 30 51 55 95 55 98 0 2 15 27 33 56 18 29 89 150 157 270 149 259 135 235
272 472 61 105 119 206 130 225 17 30 142 245 168 290 21 35 114 198 133 230
10 19 65 114 120 210 55 96 108 187 116 202 9 16 18 28 21 28 3 0 25 -35 49
-78z m1381 -2394 c58 -99 117 -202 131 -227 85 -148 339 -589 380 -658 l49
-83 -28 -1 c-134 -2 -3944 0 -3946 3 -1 1 146 261 328 576 l331 572 1325 0
1326 0 104 -182z"/>
</g>
</svg>
